<svg width="638.44" height="78.1" viewBox="0 0 638.44 78.1" xmlns="http://www.w3.org/2000/svg"><g id="svgGroup" stroke-linecap="round" fill-rule="evenodd" font-size="9pt" stroke="#000000" stroke-width="0.25mm" fill="#000000" style="stroke:#000000;stroke-width:0.25mm;fill:#000000"><path d="M 322.85 69.41 L 322.85 71.06 L 323.4 71.06 L 323.4 72.16 L 320.54 72.16 L 320.54 74.36 L 313.28 74.36 A 1.873 1.873 0 0 1 313.151 75.034 A 2.3 2.3 0 0 1 313.06 75.24 Q 312.842 75.677 312.623 76.005 A 5.265 5.265 0 0 1 312.62 76.01 L 308.88 76.01 A 7.853 7.853 0 0 1 308.68 76.204 Q 308.397 76.468 308.232 76.554 A 0.648 0.648 0 0 1 308.22 76.56 L 312.62 76.56 A 1.843 1.843 0 0 1 311.996 76.88 Q 311.735 76.959 311.422 76.986 A 3.952 3.952 0 0 1 311.08 77 L 293.7 77 A 4.597 4.597 0 0 1 292.974 76.945 A 3.733 3.733 0 0 1 292.49 76.835 A 26.862 26.862 0 0 0 291.999 76.693 Q 291.767 76.628 291.559 76.575 A 15.853 15.853 0 0 0 291.5 76.56 L 286.99 76.56 Q 286.55 76.34 286.11 76.01 L 289.85 76.01 Q 289.3 75.57 288.97 75.13 A 11.595 11.595 0 0 0 288.812 74.924 Q 288.638 74.703 288.501 74.554 A 3.014 3.014 0 0 0 288.42 74.47 L 288.42 74.36 L 295.57 74.36 L 294.14 72.16 L 297 72.16 L 296.23 71.06 L 295.68 71.06 L 294.58 69.41 L 281.93 69.41 L 280.39 67.21 L 282.04 67.21 L 280.61 65.01 L 276.76 65.01 L 276.32 64.46 L 281.38 64.46 L 280.28 62.81 L 282.59 62.81 L 281.49 61.16 L 276.98 61.16 L 275.55 58.96 L 282.48 58.96 L 282.15 58.41 L 278.52 58.41 L 277.86 57.31 L 274.45 57.31 L 273.02 55.11 L 271.15 55.11 L 270.82 54.56 L 275.88 54.56 L 274.78 52.91 L 269.06 52.91 L 269.06 54.56 L 263.56 54.56 L 263.56 55.11 L 271.04 55.11 L 271.04 57.31 L 272.14 57.31 L 272.14 58.41 L 272.25 58.41 L 272.25 58.96 L 269.06 58.96 L 269.06 61.16 L 263.89 61.16 L 263.89 62.81 L 269.94 62.81 L 269.94 64.46 L 268.84 64.46 L 268.84 65.01 L 267.52 65.01 L 267.52 67.21 L 269.94 67.21 L 269.94 69.41 L 270.93 69.41 L 270.93 71.06 L 266.42 71.06 L 266.42 72.16 L 270.27 72.16 L 270.27 74.36 L 265.43 74.36 A 1.873 1.873 0 0 1 265.301 75.034 A 2.3 2.3 0 0 1 265.21 75.24 Q 264.992 75.677 264.773 76.005 A 5.265 5.265 0 0 1 264.77 76.01 L 268.29 76.01 A 7.853 7.853 0 0 1 268.09 76.204 Q 267.807 76.468 267.642 76.554 A 0.648 0.648 0 0 1 267.63 76.56 L 264.22 76.56 A 1.843 1.843 0 0 1 263.596 76.88 Q 263.335 76.959 263.022 76.986 A 3.952 3.952 0 0 1 262.68 77 L 242.77 77 A 4.39 4.39 0 0 1 242.165 76.962 Q 241.507 76.87 241.12 76.56 L 244.64 76.56 Q 244.428 76.454 244.01 76.04 A 9.652 9.652 0 0 1 243.98 76.01 L 240.35 76.01 Q 240.132 75.683 239.913 75.247 A 9.691 9.691 0 0 1 239.91 75.24 Q 239.69 74.8 239.69 74.36 L 244.42 74.36 L 244.42 72.16 L 240.57 72.16 L 240.57 71.06 L 245.08 71.06 L 245.08 69.41 L 244.09 69.41 L 244.09 67.21 L 241.67 67.21 L 241.67 65.01 L 242.99 65.01 L 242.99 64.46 L 244.09 64.46 L 244.09 62.81 L 238.04 62.81 L 238.04 61.16 L 243.21 61.16 L 243.21 58.96 L 246.4 58.96 L 246.4 58.41 L 246.29 58.41 L 246.29 57.31 L 245.19 57.31 L 245.19 55.11 L 237.71 55.11 L 237.71 54.56 L 243.21 54.56 L 243.21 52.91 L 248.49 52.91 L 248.49 52.36 L 242.66 52.36 L 242.66 51.81 L 244.86 51.81 L 244.86 49.61 L 243.1 49.61 L 243.1 47.41 L 243.21 47.41 L 243.21 46.86 L 242.33 46.86 L 242.33 46.31 L 242.44 46.31 L 242.44 44.66 L 238.26 44.66 L 238.26 44.11 L 241.12 44.11 L 241.12 43.01 L 234.63 43.01 L 234.63 40.81 L 245.52 40.81 L 245.52 39.71 L 238.59 39.71 L 238.59 37.51 L 242.55 37.51 L 242.55 36.96 L 243.21 36.96 L 243.21 35.31 L 245.19 35.31 L 245.19 34.21 L 246.18 34.21 L 246.18 32.56 L 243.32 32.56 L 243.32 32.01 L 242.22 32.01 L 242.22 30.91 L 241.12 30.91 L 241.12 28.71 L 243.21 28.71 L 243.21 27.06 L 246.18 27.06 L 246.18 25.96 L 253.11 25.96 L 253.11 25.41 L 244.53 25.41 L 244.53 24.86 L 241.67 24.86 L 241.67 23.21 L 240.46 23.21 L 240.46 21.56 L 242.44 21.56 L 242.44 19.36 L 245.3 19.36 L 245.3 17.71 L 248.05 17.71 L 248.05 16.61 L 242.55 16.61 L 242.55 16.06 L 243.21 16.06 L 243.21 13.86 L 245.74 13.86 L 245.74 13.31 L 240.57 13.31 L 240.57 12.21 L 243.76 12.21 L 243.76 10.01 L 239.58 10.01 L 239.58 8.36 L 242.33 8.36 L 242.33 7.26 L 232.54 7.26 L 232.54 5.61 L 230.45 5.61 L 230.45 4.51 L 237.82 4.51 L 237.82 2.97 A 2.832 2.832 0 0 1 237.829 2.74 Q 237.851 2.468 237.93 2.31 L 245.3 2.31 Q 245.3 1.913 245.658 1.337 A 4.762 4.762 0 0 1 245.74 1.21 L 243.76 1.21 A 2.784 2.784 0 0 1 245.76 0.024 A 3.596 3.596 0 0 1 246.18 0 L 263.56 0 A 7.472 7.472 0 0 1 264.522 0.059 Q 265.141 0.14 265.65 0.33 Q 266.53 0.66 267.08 1.21 L 269.06 1.21 Q 269.469 1.619 269.878 2.218 A 10.063 10.063 0 0 1 269.94 2.31 L 262.57 2.31 A 0.33 0.33 0 0 0 262.572 2.347 Q 262.576 2.384 262.589 2.402 A 0.042 0.042 0 0 0 262.625 2.42 A 0.044 0.044 0 0 1 262.666 2.447 Q 262.677 2.469 262.679 2.507 A 0.37 0.37 0 0 1 262.68 2.53 L 263.89 4.51 L 256.52 4.51 L 257.18 5.61 L 259.27 5.61 L 260.26 7.26 L 270.05 7.26 L 270.71 8.36 L 268.07 8.36 L 269.06 10.01 L 273.13 10.01 L 274.56 12.21 L 271.37 12.21 L 272.03 13.31 L 277.2 13.31 L 277.53 13.86 L 275 13.86 L 276.32 16.06 L 275.66 16.06 L 275.99 16.61 L 281.49 16.61 L 282.15 17.71 L 279.4 17.71 L 280.5 19.36 L 277.64 19.36 L 278.96 21.56 L 276.87 21.56 L 277.86 23.21 L 279.07 23.21 L 280.17 24.86 L 283.03 24.86 L 283.36 25.41 L 285.01 25.41 L 285.01 24.86 L 288.31 24.86 L 288.31 23.21 L 285.12 23.21 L 285.12 21.56 L 285.89 21.56 L 285.89 19.36 L 288.09 19.36 L 288.09 17.71 L 290.73 17.71 L 290.73 16.61 L 285.45 16.61 L 285.45 13.86 L 291.94 13.86 L 291.94 13.31 L 291.83 13.31 L 291.83 12.21 L 284.9 12.21 L 284.9 10.01 L 287.32 10.01 L 287.32 8.36 L 290.51 8.36 L 290.51 7.26 L 283.8 7.26 L 283.8 5.61 L 292.38 5.61 L 292.38 4.51 L 291.72 4.51 L 291.72 2.97 A 2.832 2.832 0 0 1 291.729 2.74 Q 291.751 2.468 291.83 2.31 L 288.2 2.31 A 2.078 2.078 0 0 1 288.301 2.014 Q 288.427 1.713 288.668 1.336 A 7.709 7.709 0 0 1 288.75 1.21 L 285.01 1.21 A 2.784 2.784 0 0 1 287.01 0.024 A 3.596 3.596 0 0 1 287.43 0 L 307.34 0 Q 308.88 0 309.76 1.21 L 313.5 1.21 Q 313.668 1.547 313.837 2.013 A 12.496 12.496 0 0 1 313.94 2.31 L 317.57 2.31 L 317.57 4.51 L 318.23 4.51 L 318.23 5.61 L 309.65 5.61 L 309.65 7.26 L 316.36 7.26 L 316.36 8.36 L 313.17 8.36 L 313.17 10.01 L 310.75 10.01 L 310.75 12.21 L 317.68 12.21 L 317.68 13.31 L 317.79 13.31 L 317.79 13.86 L 311.3 13.86 L 311.3 16.61 L 316.58 16.61 L 316.58 17.71 L 313.94 17.71 L 313.94 19.36 L 311.74 19.36 L 311.74 21.56 L 310.97 21.56 L 310.97 23.21 L 314.16 23.21 L 314.16 24.86 L 310.86 24.86 L 310.86 25.41 L 318.56 25.41 L 318.56 25.96 L 314.49 25.96 L 314.49 27.06 L 313.39 27.06 L 313.39 28.71 L 309.76 28.71 L 309.76 30.91 L 306.02 30.91 L 306.02 32.01 L 311.74 32.01 L 311.74 32.56 L 315.48 32.56 L 315.48 34.21 L 314.49 34.21 L 314.49 35.31 L 312.51 35.31 L 312.51 36.96 L 311.85 36.96 L 311.85 37.51 L 307.89 37.51 L 307.89 39.71 L 314.82 39.71 L 314.82 40.81 L 303.93 40.81 L 303.93 43.01 L 310.42 43.01 L 310.42 44.11 L 307.56 44.11 L 307.56 44.66 L 311.74 44.66 L 311.74 46.31 L 311.63 46.31 L 311.63 46.86 L 315.15 46.86 L 315.15 47.41 L 312.73 47.41 L 312.73 49.61 L 312.95 49.61 L 312.95 51.81 L 316.03 51.81 L 316.03 52.36 L 310.75 52.36 L 310.75 52.91 L 313.94 52.91 L 313.94 54.56 L 308.88 54.56 L 308.88 55.11 L 310.64 55.11 L 310.64 57.31 L 314.05 57.31 L 314.05 58.41 L 317.68 58.41 L 317.68 58.96 L 310.64 58.96 L 310.64 61.16 L 315.15 61.16 L 315.15 62.81 L 312.84 62.81 L 312.84 64.46 L 307.89 64.46 L 307.89 65.01 L 311.74 65.01 L 311.74 67.21 L 310.09 67.21 L 310.09 69.41 L 322.85 69.41 Z M 463.21 38.06 L 463.21 39.71 L 483.89 39.71 L 483.89 40.26 L 478.28 40.26 L 478.28 42.46 L 469.37 42.46 L 469.37 44.66 L 468.6 44.66 L 468.6 45.21 L 469.59 45.21 L 469.59 47.41 L 463.54 47.41 L 463.54 47.96 A 6.263 6.263 0 0 1 463.519 48.489 A 5.204 5.204 0 0 1 463.485 48.785 A 5.449 5.449 0 0 0 463.438 49.288 A 6.562 6.562 0 0 0 463.43 49.61 L 467.83 49.61 A 6.263 6.263 0 0 1 467.809 50.139 A 5.204 5.204 0 0 1 467.775 50.435 A 5.449 5.449 0 0 0 467.728 50.938 A 6.562 6.562 0 0 0 467.72 51.26 L 465.41 51.26 L 465.08 53.46 L 466.84 53.46 Q 466.745 53.651 466.732 53.924 A 1.852 1.852 0 0 0 466.73 54.01 A 1.643 1.643 0 0 1 466.715 54.242 Q 466.697 54.366 466.659 54.47 A 0.874 0.874 0 0 1 466.62 54.56 L 467.94 54.56 L 467.72 55.66 L 467.5 56.76 L 467.61 56.76 L 467.39 57.86 Q 467.28 58.41 467.06 58.96 L 467.5 58.96 A 0.25 0.25 0 0 1 467.491 59.019 Q 467.456 59.157 467.286 59.499 A 9.932 9.932 0 0 1 467.28 59.51 L 467.83 59.51 L 467.39 60.61 L 466.95 61.71 L 466.62 61.71 L 465.74 63.36 L 465.52 63.36 L 464.53 65.01 L 464.86 65.01 A 16.744 16.744 0 0 1 464.365 65.639 A 14.817 14.817 0 0 1 464.2 65.835 Q 463.87 66.22 463.65 66.66 L 462.33 66.66 A 8.842 8.842 0 0 1 461.945 67.196 Q 461.736 67.463 461.527 67.681 A 5.146 5.146 0 0 1 461.45 67.76 L 460.46 67.76 L 458.81 69.41 L 459.03 69.41 L 458.37 69.96 L 451.11 69.96 L 450.45 70.51 L 451.11 70.51 L 449.68 71.61 L 456.39 71.61 L 455.51 72.16 L 461.12 72.16 L 459.14 73.26 Q 458.15 73.81 457.05 74.36 L 454.85 74.36 L 454.19 74.58 A 2.594 2.594 0 0 0 453.757 74.772 A 3.181 3.181 0 0 0 453.53 74.91 L 457.82 74.91 Q 457.442 75.005 457.145 75.099 A 7.405 7.405 0 0 0 457.05 75.13 A 2.594 2.594 0 0 0 456.617 75.322 A 3.181 3.181 0 0 0 456.39 75.46 L 441.87 75.46 A 13.934 13.934 0 0 1 440.897 75.833 A 17.48 17.48 0 0 1 440.165 76.065 Q 439.23 76.34 438.24 76.56 L 449.35 76.56 Q 447.92 76.89 446.435 77.165 Q 444.95 77.44 443.41 77.66 L 430.1 77.66 Q 428.34 77.88 426.415 77.99 Q 424.49 78.1 422.62 78.1 A 65.756 65.756 0 0 1 418.887 77.997 A 60.641 60.641 0 0 1 418.77 77.99 Q 416.9 77.88 415.03 77.66 L 428.34 77.66 Q 426.8 77.44 425.315 77.165 Q 423.83 76.89 422.4 76.56 L 411.29 76.56 A 23.87 23.87 0 0 1 409.881 76.203 A 20.681 20.681 0 0 1 409.42 76.065 Q 408.54 75.79 407.66 75.46 L 422.07 75.46 Q 421.74 75.24 421.355 75.13 A 19.186 19.186 0 0 1 420.984 75.02 A 15.538 15.538 0 0 1 420.64 74.91 L 416.35 74.91 L 415.14 74.36 L 417.45 74.36 Q 416.35 73.81 415.36 73.26 L 413.38 72.16 L 407.88 72.16 A 4.153 4.153 0 0 0 407.748 72.034 Q 407.678 71.97 407.615 71.919 A 1.685 1.685 0 0 0 407.495 71.83 Q 407.331 71.721 407.113 71.612 A 4.577 4.577 0 0 0 407.11 71.61 L 400.4 71.61 A 2.939 2.939 0 0 1 399.64 71.071 A 2.806 2.806 0 0 1 399.63 71.06 A 4.877 4.877 0 0 0 399.264 70.728 A 3.818 3.818 0 0 0 398.97 70.51 L 398.31 70.51 L 397.65 69.96 L 404.91 69.96 L 404.25 69.41 L 404.14 69.41 L 402.49 67.76 L 403.59 67.76 L 402.6 66.66 L 403.81 66.66 L 402.71 65.01 L 402.38 65.01 L 401.39 63.36 L 401.61 63.36 A 17.544 17.544 0 0 1 401.404 62.934 A 13.787 13.787 0 0 1 401.225 62.535 A 13.787 13.787 0 0 0 401.046 62.137 A 17.545 17.545 0 0 0 400.84 61.71 L 401.06 61.71 L 400.62 60.61 L 400.18 59.51 L 399.74 59.51 L 399.52 58.96 L 399.08 58.96 A 9.041 9.041 0 0 1 398.597 57.566 A 10.993 10.993 0 0 1 398.42 56.76 L 398.2 56.76 L 397.98 55.66 L 397.76 54.56 L 398.31 54.56 Q 398.215 54.37 398.202 54.097 A 1.852 1.852 0 0 1 398.2 54.01 A 1.643 1.643 0 0 0 398.185 53.778 Q 398.167 53.654 398.129 53.55 A 0.874 0.874 0 0 0 398.09 53.46 L 398.86 53.46 L 398.64 51.26 L 398.86 51.26 A 3.82 3.82 0 0 1 398.773 50.796 A 2.985 2.985 0 0 1 398.75 50.435 L 398.75 49.61 L 397.87 49.61 L 397.87 47.41 L 393.03 47.41 L 393.03 45.21 L 388.96 45.21 L 388.96 44.66 L 392.48 44.66 L 392.48 42.46 L 401.72 42.46 L 401.72 40.26 L 413.05 40.26 L 413.05 39.71 L 404.14 39.71 L 404.14 38.06 L 400.95 38.06 L 400.95 36.41 L 397.1 36.41 L 397.1 34.76 L 392.48 34.76 L 392.48 32.56 L 397.1 32.56 L 397.1 28.71 L 398.31 28.71 L 398.31 27.61 L 398.86 27.61 L 398.86 27.06 L 399.19 27.06 L 399.19 24.86 L 398.2 24.86 L 398.2 23.76 L 398.75 23.76 L 398.75 23.21 L 397.1 23.21 L 397.1 21.01 L 395.89 21.01 L 395.89 19.91 L 387.42 19.91 L 387.42 18.81 L 377.52 18.81 L 377.52 17.71 L 404.58 17.71 L 404.58 17.16 L 396.55 17.16 L 396.55 14.96 L 398.42 14.96 L 398.42 13.86 L 397.21 13.86 L 397.21 12.21 L 409.2 12.21 L 409.2 10.01 L 391.27 10.01 L 391.27 9.46 L 403.59 9.46 L 403.59 8.36 L 397.54 8.36 L 397.54 7.26 L 395.01 7.26 L 395.01 6.16 L 403.15 6.16 L 403.15 3.96 L 398.31 3.96 L 398.31 3.41 L 398.09 3.41 L 398.09 2.97 A 5.539 5.539 0 0 1 398.103 2.571 Q 398.144 2.009 398.31 1.76 L 397.65 1.76 Q 398.42 0 400.4 0 L 421.96 0 Q 423.83 0 424.6 1.76 L 425.26 1.76 Q 425.59 2.2 425.59 2.97 L 425.59 3.41 L 425.81 3.41 L 425.81 3.96 L 430.65 3.96 L 430.65 6.16 L 422.51 6.16 L 422.51 7.26 L 425.04 7.26 L 425.04 8.36 L 431.09 8.36 L 431.09 9.46 L 418.77 9.46 L 418.77 10.01 L 436.7 10.01 L 436.7 12.21 L 424.71 12.21 L 424.71 13.86 L 425.92 13.86 L 425.92 14.96 L 424.05 14.96 L 424.05 17.16 L 440.88 17.16 L 440.88 14.96 L 441.87 14.96 L 441.87 13.86 L 447.04 13.86 L 447.04 12.21 L 455.62 12.21 L 455.62 10.01 L 446.38 10.01 L 446.38 9.46 L 439.12 9.46 L 439.12 8.36 L 440.77 8.36 L 440.77 7.26 L 449.46 7.26 L 449.46 6.16 L 444.18 6.16 L 444.18 3.96 L 441.76 3.96 L 441.76 3.41 L 439.45 3.41 L 439.45 2.97 A 5.539 5.539 0 0 1 439.463 2.571 Q 439.504 2.009 439.67 1.76 L 442.09 1.76 Q 442.86 0 444.84 0 L 466.4 0 A 3.422 3.422 0 0 1 467.532 0.177 Q 468.487 0.51 469.01 1.472 A 3.781 3.781 0 0 1 469.15 1.76 L 466.62 1.76 Q 466.95 2.2 466.95 2.97 L 466.95 3.41 L 469.26 3.41 L 469.26 3.96 L 471.68 3.96 L 471.68 6.16 L 476.96 6.16 L 476.96 7.26 L 468.27 7.26 L 468.27 8.36 L 466.62 8.36 L 466.62 9.46 L 473.88 9.46 L 473.88 10.01 L 483.12 10.01 L 483.12 12.21 L 474.54 12.21 L 474.54 13.86 L 469.37 13.86 L 469.37 14.96 L 468.38 14.96 L 468.38 17.16 L 456.94 17.16 L 456.94 17.71 L 468.49 17.71 L 468.49 18.81 L 462.88 18.81 L 462.88 19.91 L 455.18 19.91 L 455.18 21.01 L 463.21 21.01 L 463.21 23.21 L 467.61 23.21 L 467.61 23.76 L 470.25 23.76 L 470.25 24.86 L 470.69 24.86 L 470.69 27.06 L 469.37 27.06 L 469.37 27.61 L 469.26 27.61 L 469.26 28.71 L 470.14 28.71 L 470.14 30.91 L 471.46 30.91 L 471.46 32.56 L 471.79 32.56 L 471.79 34.76 L 462.99 34.76 L 462.99 36.41 L 466.95 36.41 L 466.95 38.06 L 463.21 38.06 Z M 160.49 20.46 L 160.27 21.56 L 156.64 21.56 L 156.53 22.11 L 166.98 22.11 L 166.32 24.31 L 157.52 24.31 L 156.97 26.51 L 156.53 26.51 L 156.2 27.61 L 147.84 27.61 L 147.18 29.81 L 142.12 29.81 L 141.79 30.91 L 154.55 30.91 L 154.44 31.46 L 155.1 31.46 L 154.44 33.66 L 152.9 33.66 L 152.46 35.31 L 154.44 35.31 L 154.11 36.41 L 154.55 36.41 L 154.22 37.51 L 151.25 37.51 L 150.81 39.16 L 152.9 39.16 L 152.57 40.26 L 149.6 40.26 L 149.38 41.36 L 146.96 41.36 L 146.52 43.01 L 145.42 43.01 L 145.09 44.11 L 150.26 44.11 L 149.93 45.21 L 153.56 45.21 L 153.34 45.76 L 142.67 45.76 L 142.01 47.96 L 146.41 47.96 L 145.97 49.61 L 141.35 49.61 L 140.69 51.81 L 146.63 51.81 L 146.08 53.46 L 147.07 53.46 L 146.96 54.01 L 147.62 54.01 L 147.4 54.56 L 147.84 54.56 L 147.73 55.11 L 146.96 55.11 L 146.63 56.21 L 145.53 56.21 L 145.09 57.86 L 145.64 57.86 L 145.31 58.96 L 145.53 58.96 L 144.98 60.61 L 145.09 60.61 L 144.65 62.26 L 144.54 62.26 L 143.99 63.91 L 142.56 63.91 L 142.23 65.01 L 142.67 65.01 L 142.56 65.56 L 143.44 65.56 L 142.78 67.76 L 143.66 67.76 L 143.33 68.86 L 142.78 68.86 L 142.34 70.51 L 143.22 70.51 L 142.89 71.61 L 141.79 71.61 L 141.57 72.71 L 139.15 72.71 L 138.93 73.37 L 138.82 73.81 L 144.65 73.81 A 6.417 6.417 0 0 1 143.485 75.534 A 7.765 7.765 0 0 1 143 76.01 L 128.92 76.01 Q 128.611 76.32 128.108 76.532 A 3.72 3.72 0 0 1 128.04 76.56 L 140.14 76.56 Q 139.729 76.663 139.223 76.814 A 30.697 30.697 0 0 0 139.15 76.835 A 3.9 3.9 0 0 1 138.39 76.98 A 4.846 4.846 0 0 1 137.94 77 L 112.86 77 A 4.484 4.484 0 0 1 112.314 76.969 Q 112.025 76.933 111.775 76.858 A 2.666 2.666 0 0 1 111.705 76.835 A 8.563 8.563 0 0 0 110.814 76.592 A 9.567 9.567 0 0 0 110.66 76.56 L 98.45 76.56 Q 98.01 76.34 97.57 76.01 L 111.54 76.01 A 7.144 7.144 0 0 1 110.404 74.722 A 6.122 6.122 0 0 1 109.89 73.81 L 104.17 73.81 Q 104.096 73.737 104.072 73.663 A 0.231 0.231 0 0 1 104.06 73.59 Q 104.06 73.499 103.985 73.408 A 0.547 0.547 0 0 0 103.95 73.37 L 103.73 72.71 L 106.15 72.71 L 105.82 71.61 L 106.92 71.61 L 106.59 70.51 L 105.6 70.51 L 105.16 68.86 L 105.6 68.86 L 105.27 67.76 L 104.5 67.76 L 103.84 65.56 L 102.96 65.56 L 102.85 65.01 L 102.41 65.01 L 102.08 63.91 L 103.51 63.91 L 102.96 62.26 L 103.07 62.26 L 102.63 60.61 L 102.52 60.61 L 102.08 58.96 L 101.86 58.96 L 101.53 57.86 L 100.98 57.86 L 100.54 56.21 L 101.53 56.21 L 101.2 55.11 L 101.97 55.11 L 101.86 54.56 L 101.42 54.56 L 101.2 54.01 L 100.54 54.01 L 100.43 53.46 L 99.44 53.46 L 98.89 51.81 L 92.95 51.81 L 92.29 49.61 L 96.91 49.61 L 96.47 47.96 L 92.07 47.96 L 91.41 45.76 L 102.08 45.76 L 101.97 45.21 L 98.45 45.21 L 98.12 44.11 L 101.53 44.11 L 101.2 43.01 L 96.47 43.01 L 96.03 41.36 L 97.57 41.36 L 97.24 40.26 L 96.58 40.26 L 96.25 39.16 L 98.01 39.16 L 97.57 37.51 L 95.26 37.51 L 94.93 36.41 L 99.11 36.41 L 98.78 35.31 L 94.6 35.31 L 94.16 33.66 L 95.37 33.66 L 94.71 31.46 L 90.86 31.46 L 90.64 30.91 L 91.19 30.91 L 90.86 29.81 L 95.59 29.81 L 94.93 27.61 L 91.96 27.61 L 91.63 26.51 L 92.51 26.51 L 91.96 24.31 L 98.56 24.31 L 97.9 22.11 L 87.67 22.11 L 87.45 21.56 L 110.33 21.56 L 110 20.46 L 97.68 20.46 L 97.13 18.81 L 104.94 18.81 L 104.28 16.61 L 103.4 16.61 L 102.74 14.41 L 98.89 14.41 L 98.56 13.31 L 87.89 13.31 L 87.23 11.11 L 88 11.11 L 87.67 10.01 L 87.56 9.46 L 87.01 9.46 L 86.79 8.91 L 86.13 6.71 L 85.58 6.71 L 85.36 6.16 L 84.48 6.16 L 84.04 4.51 L 76.01 4.51 L 75.79 3.96 L 82.06 3.96 L 81.84 3.19 A 0.351 0.351 0 0 0 81.835 3.128 Q 81.823 3.064 81.785 3.025 A 0.173 0.173 0 0 1 81.744 2.957 Q 81.73 2.915 81.73 2.86 L 83.05 2.86 L 83.05 2.42 A 2.362 2.362 0 0 1 83.64 0.856 A 3.175 3.175 0 0 1 83.82 0.66 L 78.98 0.66 A 2.227 2.227 0 0 1 80.567 0.001 A 2.924 2.924 0 0 1 80.63 0 L 101.09 0 A 6.72 6.72 0 0 1 102.146 0.078 Q 102.715 0.169 103.179 0.365 A 3.333 3.333 0 0 1 103.73 0.66 L 108.57 0.66 A 5.468 5.468 0 0 1 110.587 2.728 A 6.527 6.527 0 0 1 110.66 2.86 L 109.23 2.86 L 109.56 3.63 L 109.67 3.96 L 103.4 3.96 L 103.51 4.51 L 111.54 4.51 L 111.98 6.16 L 112.86 6.16 L 112.97 6.71 L 113.63 6.71 L 114.18 8.91 L 114.29 9.46 L 114.95 9.46 L 115.06 10.01 L 114.95 10.01 L 115.28 11.11 L 114.62 11.11 L 115.17 13.31 L 125.84 13.31 L 126.06 14.41 L 130.46 14.41 L 130.79 13.31 L 131.34 13.31 L 131.89 11.11 L 132.22 11.11 L 132.44 10.01 L 132.77 10.01 L 132.88 9.46 L 130.02 9.46 L 130.13 8.91 L 132.88 8.91 L 133.43 6.71 L 131.34 6.71 L 131.45 6.16 L 122.98 6.16 L 123.42 4.51 L 127.27 4.51 L 127.38 3.96 L 120.12 3.96 L 120.23 3.63 A 1.059 1.059 0 0 0 120.319 3.383 A 0.898 0.898 0 0 0 120.34 3.19 Q 120.34 3.043 120.389 2.945 A 0.326 0.326 0 0 1 120.45 2.86 L 133.65 2.86 A 4.114 4.114 0 0 1 135.541 0.709 A 5.216 5.216 0 0 1 135.63 0.66 L 139.7 0.66 A 5.427 5.427 0 0 1 141.781 0.033 A 6.712 6.712 0 0 1 142.45 0 L 162.91 0 A 2.44 2.44 0 0 1 163.779 0.15 A 2.192 2.192 0 0 1 164.56 0.66 L 160.38 0.66 A 2.767 2.767 0 0 1 160.903 1.369 A 2.303 2.303 0 0 1 161.15 2.42 L 161.15 2.86 L 148.06 2.86 Q 147.95 2.97 147.95 3.19 L 147.73 3.96 L 154.99 3.96 L 154.88 4.51 L 150.92 4.51 L 150.48 6.16 L 158.95 6.16 L 158.84 6.71 L 160.82 6.71 L 160.16 8.91 L 157.52 8.91 L 157.41 9.46 L 160.27 9.46 L 160.16 10.01 L 159.83 10.01 L 159.5 11.11 L 159.17 11.11 L 158.51 13.31 L 157.96 13.31 L 157.63 14.41 L 156.86 14.41 L 156.31 16.61 L 169.95 16.61 L 169.29 18.81 L 161.7 18.81 L 161.15 20.46 L 160.49 20.46 Z M 86.13 57.86 L 94.82 57.86 L 94.82 59.51 L 78.1 59.51 L 78.1 61.71 L 88.88 61.71 L 88.88 63.91 L 79.42 63.91 L 79.42 66.11 L 80.63 66.11 L 80.63 67.76 L 79.86 67.76 L 79.86 68.86 L 77.55 68.86 L 77.55 69.96 L 77.44 69.96 L 77.44 71.06 L 79.75 71.06 L 79.75 73.26 L 82.94 73.26 L 82.94 74.03 Q 82.94 74.177 82.891 74.275 A 0.326 0.326 0 0 1 82.83 74.36 L 63.25 74.36 Q 63.155 74.551 63.142 74.824 A 1.852 1.852 0 0 0 63.14 74.91 L 70.73 74.91 A 3.185 3.185 0 0 1 70.318 75.794 A 2.66 2.66 0 0 1 69.52 76.56 L 67.43 76.56 A 1.843 1.843 0 0 1 66.806 76.88 Q 66.545 76.959 66.232 76.986 A 3.952 3.952 0 0 1 65.89 77 L 8.58 77 Q 7.7 77 6.93 76.56 L 9.02 76.56 A 3.116 3.116 0 0 1 8.249 75.754 Q 8.015 75.406 7.834 74.969 A 5.427 5.427 0 0 1 7.81 74.91 L 0.11 74.91 Q 0.015 74.72 0.002 74.447 A 1.852 1.852 0 0 1 0 74.36 L 19.69 74.36 L 19.69 73.26 L 16.5 73.26 L 16.5 71.06 L 14.19 71.06 L 14.19 69.96 L 14.3 69.96 L 14.3 68.86 L 16.61 68.86 L 16.61 67.76 L 17.38 67.76 L 17.38 66.11 L 16.17 66.11 L 16.17 63.91 L 25.63 63.91 L 25.63 61.71 L 14.85 61.71 L 14.85 59.51 L 31.57 59.51 L 31.57 57.86 L 22.88 57.86 L 22.88 56.76 L 25.41 56.76 L 25.41 55.66 L 26.51 55.66 L 26.51 54.56 L 14.3 54.56 L 14.3 53.46 L 11.44 53.46 L 11.44 51.81 L 21.67 51.81 L 21.67 51.26 L 13.53 51.26 L 13.53 50.16 L 15.95 50.16 L 15.95 49.06 L 17.71 49.06 L 17.71 47.41 L 17.49 47.41 L 17.49 45.21 L 16.39 45.21 L 16.39 43.01 L 14.74 43.01 L 14.74 41.91 L 16.06 41.91 L 16.06 39.71 L 14.85 39.71 L 14.85 38.61 L 16.61 38.61 L 16.61 36.96 L 17.05 36.96 L 17.05 35.31 L 19.03 35.31 L 19.03 34.76 L 17.16 34.76 L 17.16 32.56 L 15.51 32.56 L 15.51 30.91 L 15.95 30.91 L 15.95 29.26 L 16.17 29.26 L 16.17 27.06 L 17.82 27.06 L 17.82 24.86 L 15.4 24.86 L 15.4 22.66 L 15.73 22.66 L 15.73 20.46 L 18.81 20.46 L 18.81 18.81 L 17.16 18.81 L 17.16 17.16 L 16.28 17.16 L 16.28 16.61 L 20.9 16.61 L 20.9 14.96 L 29.04 14.96 L 29.04 13.86 L 25.74 13.86 L 25.74 12.76 L 15.07 12.76 L 15.07 12.21 L 16.28 12.21 L 16.28 10.56 L 16.39 10.56 L 16.39 8.91 L 16.72 8.91 L 16.72 6.71 L 16.61 6.71 L 16.61 3.96 L 16.39 3.96 L 16.39 2.97 A 2.832 2.832 0 0 1 16.399 2.74 Q 16.421 2.468 16.5 2.31 L 15.4 2.31 Q 15.84 0 18.26 0 L 74.69 0 A 4.088 4.088 0 0 1 75.771 0.132 Q 77.012 0.472 77.411 1.698 A 3.646 3.646 0 0 1 77.55 2.31 L 78.65 2.31 Q 78.76 2.53 78.76 2.97 L 78.76 3.96 L 78.98 3.96 L 78.98 6.71 L 79.09 6.71 L 79.09 8.91 L 78.76 8.91 L 78.76 10.56 L 78.65 10.56 L 78.65 12.21 L 77.44 12.21 L 77.44 12.76 L 88.11 12.76 L 88.11 13.86 L 91.41 13.86 L 91.41 14.96 L 83.27 14.96 L 83.27 16.61 L 78.65 16.61 L 78.65 17.16 L 79.53 17.16 L 79.53 18.81 L 81.18 18.81 Q 80.96 19.91 80.41 20.46 L 77.33 20.46 Q 76.56 21.45 75.13 21.45 L 42.13 21.45 L 42.13 22.66 L 41.8 22.66 L 41.8 24.86 L 44.22 24.86 L 44.22 27.06 L 42.57 27.06 L 42.57 28.38 L 73.15 28.38 A 2.85 2.85 0 0 1 75.212 29.233 A 3.597 3.597 0 0 1 75.24 29.26 L 75.02 29.26 A 2.316 2.316 0 0 1 75.438 29.847 Q 75.581 30.125 75.683 30.471 A 5.1 5.1 0 0 1 75.79 30.91 L 75.46 30.91 L 75.46 32.56 L 77.11 32.56 L 77.11 34.76 L 78.98 34.76 L 78.98 35.31 L 77 35.31 L 77 36.96 L 76.56 36.96 L 76.56 38.61 L 74.8 38.61 L 74.8 39.71 L 76.01 39.71 L 76.01 41.91 L 74.69 41.91 L 74.69 43.01 L 76.34 43.01 L 76.34 45.21 L 77.44 45.21 L 77.44 45.65 A 4.22 4.22 0 0 1 77.396 46.279 Q 77.348 46.601 77.245 46.858 A 1.625 1.625 0 0 1 76.89 47.41 L 77.11 47.41 A 2.784 2.784 0 0 1 75.11 48.596 A 3.596 3.596 0 0 1 74.69 48.62 L 44.11 48.62 L 44.11 49.06 L 42.35 49.06 L 42.35 50.16 L 39.93 50.16 L 39.93 51.26 L 48.07 51.26 L 48.07 51.81 L 37.84 51.81 L 37.84 53.46 L 40.7 53.46 L 40.7 54.56 L 52.91 54.56 L 52.91 55.55 L 86.79 55.55 Q 87.34 55.55 87.67 55.66 L 86.46 55.66 A 3.741 3.741 0 0 1 87.249 55.993 A 2.676 2.676 0 0 1 88.11 56.76 L 85.58 56.76 Q 85.986 57.369 86.111 57.791 A 1.662 1.662 0 0 1 86.13 57.86 Z M 239.36 57.86 L 248.05 57.86 L 248.05 59.51 L 231.33 59.51 L 231.33 61.71 L 242.11 61.71 L 242.11 63.91 L 232.65 63.91 L 232.65 66.11 L 233.86 66.11 L 233.86 67.76 L 233.09 67.76 L 233.09 68.86 L 230.78 68.86 L 230.78 69.96 L 230.67 69.96 L 230.67 71.06 L 232.98 71.06 L 232.98 73.26 L 236.17 73.26 L 236.17 74.03 Q 236.17 74.177 236.121 74.275 A 0.326 0.326 0 0 1 236.06 74.36 L 216.48 74.36 Q 216.385 74.551 216.372 74.824 A 1.852 1.852 0 0 0 216.37 74.91 L 223.96 74.91 A 3.185 3.185 0 0 1 223.548 75.794 A 2.66 2.66 0 0 1 222.75 76.56 L 220.66 76.56 A 1.843 1.843 0 0 1 220.036 76.88 Q 219.775 76.959 219.462 76.986 A 3.952 3.952 0 0 1 219.12 77 L 161.81 77 Q 160.93 77 160.16 76.56 L 162.25 76.56 A 3.116 3.116 0 0 1 161.479 75.754 Q 161.245 75.406 161.064 74.969 A 5.427 5.427 0 0 1 161.04 74.91 L 153.34 74.91 Q 153.245 74.72 153.232 74.447 A 1.852 1.852 0 0 1 153.23 74.36 L 172.92 74.36 L 172.92 73.26 L 169.73 73.26 L 169.73 71.06 L 167.42 71.06 L 167.42 69.96 L 167.53 69.96 L 167.53 68.86 L 169.84 68.86 L 169.84 67.76 L 170.61 67.76 L 170.61 66.11 L 169.4 66.11 L 169.4 63.91 L 178.86 63.91 L 178.86 61.71 L 168.08 61.71 L 168.08 59.51 L 184.8 59.51 L 184.8 57.86 L 176.11 57.86 L 176.11 56.76 L 178.64 56.76 L 178.64 55.66 L 179.74 55.66 L 179.74 54.56 L 167.53 54.56 L 167.53 53.46 L 164.67 53.46 L 164.67 51.81 L 174.9 51.81 L 174.9 51.26 L 166.76 51.26 L 166.76 50.16 L 169.18 50.16 L 169.18 49.06 L 170.94 49.06 L 170.94 47.41 L 170.72 47.41 L 170.72 45.21 L 169.62 45.21 L 169.62 43.01 L 167.97 43.01 L 167.97 41.91 L 169.29 41.91 L 169.29 39.71 L 168.08 39.71 L 168.08 38.61 L 169.84 38.61 L 169.84 36.96 L 170.28 36.96 L 170.28 35.31 L 172.26 35.31 L 172.26 34.76 L 170.39 34.76 L 170.39 32.56 L 168.74 32.56 L 168.74 30.91 L 169.18 30.91 L 169.18 29.26 L 169.4 29.26 L 169.4 27.06 L 171.05 27.06 L 171.05 24.86 L 168.63 24.86 L 168.63 22.66 L 168.96 22.66 L 168.96 20.46 L 172.04 20.46 L 172.04 18.81 L 170.39 18.81 L 170.39 17.16 L 169.51 17.16 L 169.51 16.61 L 174.13 16.61 L 174.13 14.96 L 182.27 14.96 L 182.27 13.86 L 178.97 13.86 L 178.97 12.76 L 168.3 12.76 L 168.3 12.21 L 169.51 12.21 L 169.51 10.56 L 169.62 10.56 L 169.62 8.91 L 169.95 8.91 L 169.95 6.71 L 169.84 6.71 L 169.84 3.96 L 169.62 3.96 L 169.62 2.97 A 2.832 2.832 0 0 1 169.629 2.74 Q 169.651 2.468 169.73 2.31 L 168.63 2.31 Q 169.07 0 171.49 0 L 227.92 0 A 4.088 4.088 0 0 1 229.001 0.132 Q 230.242 0.472 230.641 1.698 A 3.646 3.646 0 0 1 230.78 2.31 L 231.88 2.31 Q 231.99 2.53 231.99 2.97 L 231.99 3.96 L 232.21 3.96 L 232.21 6.71 L 232.32 6.71 L 232.32 8.91 L 231.99 8.91 L 231.99 10.56 L 231.88 10.56 L 231.88 12.21 L 230.67 12.21 L 230.67 12.76 L 241.34 12.76 L 241.34 13.86 L 244.64 13.86 L 244.64 14.96 L 236.5 14.96 L 236.5 16.61 L 231.88 16.61 L 231.88 17.16 L 232.76 17.16 L 232.76 18.81 L 234.41 18.81 Q 234.19 19.91 233.64 20.46 L 230.56 20.46 Q 229.79 21.45 228.36 21.45 L 195.36 21.45 L 195.36 22.66 L 195.03 22.66 L 195.03 24.86 L 197.45 24.86 L 197.45 27.06 L 195.8 27.06 L 195.8 28.38 L 226.38 28.38 A 2.85 2.85 0 0 1 228.442 29.233 A 3.597 3.597 0 0 1 228.47 29.26 L 228.25 29.26 A 2.316 2.316 0 0 1 228.668 29.847 Q 228.811 30.125 228.913 30.471 A 5.1 5.1 0 0 1 229.02 30.91 L 228.69 30.91 L 228.69 32.56 L 230.34 32.56 L 230.34 34.76 L 232.21 34.76 L 232.21 35.31 L 230.23 35.31 L 230.23 36.96 L 229.79 36.96 L 229.79 38.61 L 228.03 38.61 L 228.03 39.71 L 229.24 39.71 L 229.24 41.91 L 227.92 41.91 L 227.92 43.01 L 229.57 43.01 L 229.57 45.21 L 230.67 45.21 L 230.67 45.65 A 4.22 4.22 0 0 1 230.626 46.279 Q 230.578 46.601 230.475 46.858 A 1.625 1.625 0 0 1 230.12 47.41 L 230.34 47.41 A 2.784 2.784 0 0 1 228.34 48.596 A 3.596 3.596 0 0 1 227.92 48.62 L 197.34 48.62 L 197.34 49.06 L 195.58 49.06 L 195.58 50.16 L 193.16 50.16 L 193.16 51.26 L 201.3 51.26 L 201.3 51.81 L 191.07 51.81 L 191.07 53.46 L 193.93 53.46 L 193.93 54.56 L 206.14 54.56 L 206.14 55.55 L 240.02 55.55 Q 240.57 55.55 240.9 55.66 L 239.69 55.66 A 3.741 3.741 0 0 1 240.479 55.993 A 2.676 2.676 0 0 1 241.34 56.76 L 238.81 56.76 Q 239.216 57.369 239.341 57.791 A 1.662 1.662 0 0 1 239.36 57.86 Z M 629.75 57.86 L 638.44 57.86 L 638.44 59.51 L 621.72 59.51 L 621.72 61.71 L 632.5 61.71 L 632.5 63.91 L 623.04 63.91 L 623.04 66.11 L 624.25 66.11 L 624.25 67.76 L 623.48 67.76 L 623.48 68.86 L 621.17 68.86 L 621.17 69.96 L 621.06 69.96 L 621.06 71.06 L 623.37 71.06 L 623.37 73.26 L 626.56 73.26 L 626.56 74.03 Q 626.56 74.177 626.511 74.275 A 0.326 0.326 0 0 1 626.45 74.36 L 606.87 74.36 Q 606.775 74.551 606.762 74.824 A 1.852 1.852 0 0 0 606.76 74.91 L 614.35 74.91 A 3.185 3.185 0 0 1 613.938 75.794 A 2.66 2.66 0 0 1 613.14 76.56 L 611.05 76.56 A 1.843 1.843 0 0 1 610.426 76.88 Q 610.165 76.959 609.852 76.986 A 3.952 3.952 0 0 1 609.51 77 L 552.2 77 Q 551.32 77 550.55 76.56 L 552.64 76.56 A 3.116 3.116 0 0 1 551.869 75.754 Q 551.635 75.406 551.454 74.969 A 5.427 5.427 0 0 1 551.43 74.91 L 543.73 74.91 Q 543.635 74.72 543.622 74.447 A 1.852 1.852 0 0 1 543.62 74.36 L 563.31 74.36 L 563.31 73.26 L 560.12 73.26 L 560.12 71.06 L 557.81 71.06 L 557.81 69.96 L 557.92 69.96 L 557.92 68.86 L 560.23 68.86 L 560.23 67.76 L 561 67.76 L 561 66.11 L 559.79 66.11 L 559.79 63.91 L 569.25 63.91 L 569.25 61.71 L 558.47 61.71 L 558.47 59.51 L 575.19 59.51 L 575.19 57.86 L 566.5 57.86 L 566.5 56.76 L 569.03 56.76 L 569.03 55.66 L 570.13 55.66 L 570.13 54.56 L 557.92 54.56 L 557.92 53.46 L 555.06 53.46 L 555.06 51.81 L 565.29 51.81 L 565.29 51.26 L 557.15 51.26 L 557.15 50.16 L 559.57 50.16 L 559.57 49.06 L 561.33 49.06 L 561.33 47.41 L 561.11 47.41 L 561.11 45.21 L 560.01 45.21 L 560.01 43.01 L 558.36 43.01 L 558.36 41.91 L 559.68 41.91 L 559.68 39.71 L 558.47 39.71 L 558.47 38.61 L 560.23 38.61 L 560.23 36.96 L 560.67 36.96 L 560.67 35.31 L 562.65 35.31 L 562.65 34.76 L 560.78 34.76 L 560.78 32.56 L 559.13 32.56 L 559.13 30.91 L 559.57 30.91 L 559.57 29.26 L 559.79 29.26 L 559.79 27.06 L 561.44 27.06 L 561.44 24.86 L 559.02 24.86 L 559.02 22.66 L 559.35 22.66 L 559.35 20.46 L 562.43 20.46 L 562.43 18.81 L 560.78 18.81 L 560.78 17.16 L 559.9 17.16 L 559.9 16.61 L 564.52 16.61 L 564.52 14.96 L 572.66 14.96 L 572.66 13.86 L 569.36 13.86 L 569.36 12.76 L 558.69 12.76 L 558.69 12.21 L 559.9 12.21 L 559.9 10.56 L 560.01 10.56 L 560.01 8.91 L 560.34 8.91 L 560.34 6.71 L 560.23 6.71 L 560.23 3.96 L 560.01 3.96 L 560.01 2.97 A 2.832 2.832 0 0 1 560.019 2.74 Q 560.041 2.468 560.12 2.31 L 559.02 2.31 Q 559.46 0 561.88 0 L 618.31 0 A 4.088 4.088 0 0 1 619.391 0.132 Q 620.632 0.472 621.031 1.698 A 3.646 3.646 0 0 1 621.17 2.31 L 622.27 2.31 Q 622.38 2.53 622.38 2.97 L 622.38 3.96 L 622.6 3.96 L 622.6 6.71 L 622.71 6.71 L 622.71 8.91 L 622.38 8.91 L 622.38 10.56 L 622.27 10.56 L 622.27 12.21 L 621.06 12.21 L 621.06 12.76 L 631.73 12.76 L 631.73 13.86 L 635.03 13.86 L 635.03 14.96 L 626.89 14.96 L 626.89 16.61 L 622.27 16.61 L 622.27 17.16 L 623.15 17.16 L 623.15 18.81 L 624.8 18.81 Q 624.58 19.91 624.03 20.46 L 620.95 20.46 Q 620.18 21.45 618.75 21.45 L 585.75 21.45 L 585.75 22.66 L 585.42 22.66 L 585.42 24.86 L 587.84 24.86 L 587.84 27.06 L 586.19 27.06 L 586.19 28.38 L 616.77 28.38 A 2.85 2.85 0 0 1 618.832 29.233 A 3.597 3.597 0 0 1 618.86 29.26 L 618.64 29.26 A 2.316 2.316 0 0 1 619.058 29.847 Q 619.201 30.125 619.303 30.471 A 5.1 5.1 0 0 1 619.41 30.91 L 619.08 30.91 L 619.08 32.56 L 620.73 32.56 L 620.73 34.76 L 622.6 34.76 L 622.6 35.31 L 620.62 35.31 L 620.62 36.96 L 620.18 36.96 L 620.18 38.61 L 618.42 38.61 L 618.42 39.71 L 619.63 39.71 L 619.63 41.91 L 618.31 41.91 L 618.31 43.01 L 619.96 43.01 L 619.96 45.21 L 621.06 45.21 L 621.06 45.65 A 4.22 4.22 0 0 1 621.016 46.279 Q 620.968 46.601 620.865 46.858 A 1.625 1.625 0 0 1 620.51 47.41 L 620.73 47.41 A 2.784 2.784 0 0 1 618.73 48.596 A 3.596 3.596 0 0 1 618.31 48.62 L 587.73 48.62 L 587.73 49.06 L 585.97 49.06 L 585.97 50.16 L 583.55 50.16 L 583.55 51.26 L 591.69 51.26 L 591.69 51.81 L 581.46 51.81 L 581.46 53.46 L 584.32 53.46 L 584.32 54.56 L 596.53 54.56 L 596.53 55.55 L 630.41 55.55 Q 630.96 55.55 631.29 55.66 L 630.08 55.66 A 3.741 3.741 0 0 1 630.869 55.993 A 2.676 2.676 0 0 1 631.73 56.76 L 629.2 56.76 Q 629.606 57.369 629.731 57.791 A 1.662 1.662 0 0 1 629.75 57.86 Z M 550.88 33.11 L 545.49 33.11 Q 545.38 33.55 545.27 33.935 Q 545.16 34.32 544.94 34.76 L 548.02 34.76 L 547.69 35.86 L 545.05 35.86 Q 544.742 36.785 544.242 37.901 A 31.646 31.646 0 0 1 544.17 38.06 L 542.52 38.06 A 10.271 10.271 0 0 1 541.78 39.538 A 12.457 12.457 0 0 1 541.31 40.26 L 541.53 40.26 A 10.379 10.379 0 0 0 540.937 41.077 A 9.03 9.03 0 0 0 540.76 41.36 Q 540.43 41.91 539.99 42.46 L 551.87 42.46 L 550.44 44.11 L 540.65 44.11 Q 540.21 44.66 539.55 45.21 A 18.842 18.842 0 0 0 538.658 46.001 A 16.227 16.227 0 0 0 538.34 46.31 L 539.77 46.31 A 5.637 5.637 0 0 1 539.156 46.839 A 6.997 6.997 0 0 1 538.725 47.135 Q 538.12 47.52 537.57 47.96 L 541.2 47.96 L 540.76 48.29 L 541.75 50.16 L 539.11 50.16 L 540.32 52.36 L 540.65 52.36 L 540.98 52.91 L 540.87 52.91 L 541.97 55.11 L 543.07 55.11 L 543.73 56.21 L 535.26 56.21 L 536.14 57.86 L 543.84 57.86 L 544.5 58.96 L 542.08 58.96 L 542.96 60.61 L 553.85 60.61 L 555.06 62.81 L 547.8 62.81 L 548.68 64.46 L 545.27 64.46 L 547.03 67.76 L 547.8 67.76 L 548.46 68.86 L 548.13 68.86 L 548.46 69.41 L 543.29 69.41 L 544.5 71.61 L 544.72 72.16 L 541.31 72.16 L 541.86 73.37 Q 542.19 73.81 542.19 74.36 L 544.5 74.36 L 544.5 74.58 A 2.364 2.364 0 0 1 543.722 76.38 A 3.081 3.081 0 0 1 543.51 76.56 L 546.48 76.56 Q 545.944 76.99 545.093 77 A 3.471 3.471 0 0 1 545.05 77 L 522.5 77 A 4.484 4.484 0 0 1 521.954 76.969 Q 521.665 76.933 521.415 76.858 A 2.666 2.666 0 0 1 521.345 76.835 A 8.563 8.563 0 0 0 520.454 76.592 A 9.567 9.567 0 0 0 520.3 76.56 L 517.33 76.56 A 5.318 5.318 0 0 1 516.293 75.888 A 4.662 4.662 0 0 1 515.845 75.46 A 24.554 24.554 0 0 1 515.494 75.069 Q 515.148 74.676 514.925 74.38 A 7.043 7.043 0 0 1 514.91 74.36 L 512.71 74.36 L 512.49 74.03 L 511.72 72.16 L 515.24 72.16 L 514.91 71.61 L 504.46 71.61 L 504.46 72.16 L 498.85 72.16 L 498.85 74.36 L 507.76 74.36 A 3.484 3.484 0 0 1 507.478 75.344 A 2.613 2.613 0 0 1 506.33 76.56 L 505.56 76.56 Q 504.79 77 503.91 77 L 482.35 77 Q 481.36 77 480.81 76.56 L 481.69 76.56 A 2.677 2.677 0 0 1 480.353 74.82 A 3.939 3.939 0 0 1 480.26 74.36 L 471.46 74.36 A 0.351 0.351 0 0 0 471.455 74.298 Q 471.443 74.234 471.405 74.195 A 0.173 0.173 0 0 1 471.364 74.127 Q 471.35 74.085 471.35 74.03 L 471.35 72.16 L 476.96 72.16 L 476.96 71.61 L 487.96 71.61 L 487.96 69.41 L 476.19 69.41 L 476.19 68.86 L 483.12 68.86 L 483.12 67.76 L 480.81 67.76 L 480.81 66.11 L 484.66 66.11 L 484.66 64.46 L 478.39 64.46 L 478.39 62.81 L 486.86 62.81 L 486.86 60.61 L 482.02 60.61 L 482.02 58.96 L 481.91 58.96 L 481.91 58.41 L 481.25 58.41 L 481.25 57.86 L 478.28 57.86 L 478.28 56.21 L 482.02 56.21 L 482.02 55.11 L 481.03 55.11 L 481.03 52.91 L 481.14 52.91 L 481.14 52.36 L 480.81 52.36 L 480.81 50.16 L 483.45 50.16 L 483.45 47.96 L 479.71 47.96 L 479.71 46.31 L 478.28 46.31 L 478.28 44.11 L 487.96 44.11 L 487.96 42.46 L 476.08 42.46 L 476.08 40.26 L 475.86 40.26 L 475.86 38.06 L 477.51 38.06 L 477.51 35.86 L 480.04 35.86 L 480.04 34.76 L 476.96 34.76 L 476.96 33.11 L 482.35 33.11 L 482.35 32.01 L 490.27 32.01 L 490.27 30.91 L 479.38 30.91 L 479.38 30.36 L 479.93 30.36 L 479.93 29.81 L 480.92 29.81 L 480.92 29.26 L 481.03 29.26 L 481.03 28.16 L 480.81 28.16 L 480.81 26.51 L 481.25 26.51 L 481.25 24.31 L 480.7 24.31 L 480.7 23.21 L 481.25 23.21 L 481.25 21.56 L 480.81 21.56 L 480.81 21.01 L 481.14 21.01 L 481.14 19.91 L 481.03 19.91 L 481.03 19.36 L 480.59 19.36 L 480.59 18.81 L 481.58 18.81 L 481.58 17.16 L 482.46 17.16 L 482.46 15.51 L 477.29 15.51 L 477.29 13.31 L 478.5 13.31 L 478.5 11.11 L 477.84 11.11 L 477.84 9.46 L 480.81 9.46 L 480.81 7.81 L 481.91 7.81 L 481.91 6.16 L 479.93 6.16 L 479.93 5.06 L 480.7 5.06 L 480.7 4.51 L 480.92 4.51 L 480.92 2.86 L 481.14 2.86 A 2.871 2.871 0 0 1 481.72 1.137 A 4.022 4.022 0 0 1 482.13 0.66 L 488.07 0.66 A 2.149 2.149 0 0 1 489.044 0.11 Q 489.383 0.018 489.788 0.003 A 4.248 4.248 0 0 1 489.94 0 L 522.5 0 A 59.693 59.693 0 0 1 528.02 0.245 A 48.576 48.576 0 0 1 531.3 0.66 L 525.47 0.66 Q 529.87 1.32 533.83 2.86 L 533.61 2.86 Q 535.48 3.52 537.24 4.51 L 537.02 4.51 L 538.01 5.06 L 537.13 5.06 A 3.715 3.715 0 0 1 537.668 5.325 A 2.936 2.936 0 0 1 538.065 5.61 Q 538.45 5.94 538.89 6.16 L 540.87 6.16 Q 541.42 6.6 541.97 6.985 A 7.54 7.54 0 0 1 542.791 7.647 A 6.758 6.758 0 0 1 542.96 7.81 L 541.86 7.81 A 14.118 14.118 0 0 1 542.31 8.185 Q 542.578 8.419 542.795 8.635 L 543.62 9.46 L 540.65 9.46 A 17.239 17.239 0 0 1 541.063 9.887 A 12.686 12.686 0 0 1 541.42 10.285 A 15.754 15.754 0 0 1 541.915 10.894 A 17.79 17.79 0 0 1 542.08 11.11 L 542.63 11.11 A 20.757 20.757 0 0 1 543.815 12.743 A 18.059 18.059 0 0 1 544.17 13.31 L 543.07 13.31 A 4.901 4.901 0 0 1 543.405 13.824 A 6.52 6.52 0 0 1 543.675 14.355 Q 543.95 14.96 544.28 15.51 L 549.45 15.51 L 550.11 17.16 L 549.23 17.16 A 5.575 5.575 0 0 0 549.44 17.827 A 4.964 4.964 0 0 0 549.505 17.985 Q 549.67 18.37 549.78 18.81 L 548.68 18.81 L 548.9 19.36 L 549.34 19.36 Q 549.435 19.551 549.448 19.824 A 1.852 1.852 0 0 1 549.45 19.91 L 549.78 21.01 L 550.11 21.01 A 1.643 1.643 0 0 0 550.125 21.242 Q 550.143 21.366 550.181 21.47 A 0.874 0.874 0 0 0 550.22 21.56 L 550.33 21.56 A 9.063 9.063 0 0 1 550.436 22.038 A 7.192 7.192 0 0 1 550.495 22.385 A 5.449 5.449 0 0 1 550.542 22.888 A 6.562 6.562 0 0 1 550.55 23.21 L 549.12 23.21 L 549.12 23.76 A 1.643 1.643 0 0 0 549.135 23.992 Q 549.153 24.116 549.191 24.22 A 0.874 0.874 0 0 0 549.23 24.31 L 549.89 24.31 Q 549.89 24.86 549.945 25.41 Q 550 25.96 550 26.51 L 550 27.61 L 550.66 27.61 L 550.66 28.16 L 550 28.16 L 550 29.26 L 548.9 29.26 Q 548.9 29.37 548.845 29.48 A 0.41 0.41 0 0 0 548.816 29.56 Q 548.794 29.645 548.791 29.769 A 1.636 1.636 0 0 0 548.79 29.81 L 549.89 29.81 Q 549.89 29.92 549.835 30.03 A 0.41 0.41 0 0 0 549.806 30.11 Q 549.784 30.195 549.781 30.319 A 1.636 1.636 0 0 0 549.78 30.36 L 554.95 30.36 Q 554.855 30.551 554.842 30.824 A 1.852 1.852 0 0 0 554.84 30.91 L 556.27 30.91 L 556.16 32.01 L 551.1 32.01 A 5.738 5.738 0 0 0 550.984 32.401 Q 550.933 32.601 550.907 32.776 A 2.283 2.283 0 0 0 550.88 33.11 Z M 397.21 8.36 L 397.21 10.01 L 376.75 10.01 L 376.75 12.21 L 384.56 12.21 L 384.56 13.86 L 393.03 13.86 L 393.03 15.51 L 392.81 15.51 L 392.81 17.16 L 396 17.16 L 396 19.36 L 384.01 19.36 L 384.01 19.91 L 381.7 19.91 L 381.7 20.68 Q 381.7 21.45 381.37 22.11 L 389.18 22.11 A 2.925 2.925 0 0 1 388.49 23.026 Q 387.908 23.531 387.064 23.627 A 3.642 3.642 0 0 1 386.65 23.65 L 368.39 23.65 L 368.39 23.76 L 369.49 23.76 L 369.49 25.96 L 369.71 25.96 L 369.71 28.16 L 369.16 28.16 L 369.16 30.36 L 367.73 30.36 L 367.73 32.01 L 373.23 32.01 L 373.23 33.11 L 368.61 33.11 L 368.61 34.76 L 366.19 34.76 L 366.19 36.96 L 370.37 36.96 L 370.37 38.06 L 369.6 38.06 L 369.6 40.26 L 368.83 40.26 L 368.83 42.46 L 367.51 42.46 L 367.51 44.66 L 366.3 44.66 L 366.3 46.31 L 370.37 46.31 L 370.37 47.96 L 368.72 47.96 L 368.72 50.16 L 369.38 50.16 L 369.38 50.71 L 370.15 50.71 L 370.15 51.81 L 375.65 51.81 L 375.65 53.46 L 371.91 53.46 L 371.91 55.66 L 373.56 55.66 L 373.56 57.86 L 368.94 57.86 L 368.94 60.06 L 370.81 60.06 L 370.81 61.16 L 371.58 61.16 L 371.58 62.81 L 373.34 62.81 L 373.34 65.01 L 372.68 65.01 L 372.68 66.66 L 369.82 66.66 L 369.82 68.31 L 369.49 68.31 L 369.49 69.41 L 369.38 69.41 L 369.38 71.06 L 370.59 71.06 L 370.59 72.71 L 369.6 72.71 L 369.6 74.03 Q 369.6 74.58 369.49 74.91 L 368.39 74.91 A 3.185 3.185 0 0 1 367.978 75.794 A 2.66 2.66 0 0 1 367.18 76.56 L 367.4 76.56 A 1.843 1.843 0 0 1 366.776 76.88 Q 366.515 76.959 366.202 76.986 A 3.952 3.952 0 0 1 365.86 77 L 343.86 77 Q 342.98 77 342.21 76.56 L 341.99 76.56 A 3.116 3.116 0 0 1 341.219 75.754 Q 340.985 75.406 340.804 74.969 A 5.427 5.427 0 0 1 340.78 74.91 L 341.77 74.91 Q 341.66 74.58 341.66 74.03 L 341.66 72.71 L 342.65 72.71 L 342.65 71.06 L 341.44 71.06 L 341.44 69.41 L 341.55 69.41 L 341.55 68.31 L 341.88 68.31 L 341.88 66.66 L 344.74 66.66 L 344.74 65.01 L 345.4 65.01 L 345.4 62.81 L 343.64 62.81 L 343.64 61.16 L 342.87 61.16 L 342.87 60.06 L 341 60.06 L 341 57.86 L 345.62 57.86 L 345.62 55.66 L 343.97 55.66 L 343.97 53.46 L 347.71 53.46 L 347.71 51.81 L 342.21 51.81 L 342.21 50.71 L 341.44 50.71 L 341.44 50.16 L 340.78 50.16 L 340.78 47.96 L 342.43 47.96 L 342.43 46.31 L 338.36 46.31 L 338.36 44.66 L 339.57 44.66 L 339.57 42.46 L 340.89 42.46 L 340.89 40.26 L 341.66 40.26 L 341.66 38.06 L 342.43 38.06 L 342.43 36.96 L 338.25 36.96 L 338.25 34.76 L 340.67 34.76 L 340.67 33.11 L 345.29 33.11 L 345.29 32.01 L 339.79 32.01 L 339.79 30.36 L 341.22 30.36 L 341.22 28.16 L 341.77 28.16 L 341.77 25.96 L 341.55 25.96 L 341.55 23.76 L 340.45 23.76 L 340.45 23.65 L 322.19 23.65 A 2.891 2.891 0 0 1 319.918 22.604 A 4.24 4.24 0 0 1 319.55 22.11 L 311.74 22.11 Q 311.63 21.78 311.465 21.45 Q 311.3 21.12 311.3 20.68 L 311.3 19.91 L 313.61 19.91 L 313.61 19.36 L 325.6 19.36 L 325.6 17.16 L 322.41 17.16 L 322.41 15.51 L 322.63 15.51 L 322.63 13.86 L 314.16 13.86 L 314.16 12.21 L 306.35 12.21 L 306.35 10.01 L 326.81 10.01 L 326.81 8.36 L 315.37 8.36 L 315.37 6.16 L 317.57 6.16 L 317.57 3.96 L 320.43 3.96 L 320.43 3.41 L 322.08 3.41 L 322.08 2.97 A 2.976 2.976 0 0 1 322.173 2.207 A 2.166 2.166 0 0 1 322.74 1.21 L 320.32 1.21 A 2.784 2.784 0 0 1 322.32 0.024 A 3.596 3.596 0 0 1 322.74 0 L 387.2 0 Q 388.74 0 389.62 1.21 L 391.93 1.21 Q 392.48 1.98 392.48 2.97 L 392.48 3.41 L 390.83 3.41 L 390.83 3.96 L 387.97 3.96 L 387.97 6.16 L 385.77 6.16 L 385.77 8.36 L 397.21 8.36 Z M 428.45 36.41 L 428.45 38.06 L 431.64 38.06 L 431.64 39.71 L 435.71 39.71 L 435.71 38.06 L 439.45 38.06 L 439.45 36.41 L 435.49 36.41 L 435.49 34.76 L 444.29 34.76 L 444.29 32.56 L 443.96 32.56 L 443.96 30.91 L 442.64 30.91 L 442.64 28.71 L 441.76 28.71 L 441.76 27.61 L 441.87 27.61 L 441.87 27.06 L 443.19 27.06 L 443.19 24.86 L 442.75 24.86 L 442.75 23.76 L 440.11 23.76 L 440.11 23.21 L 435.71 23.21 L 435.71 21.01 L 427.68 21.01 L 427.68 19.91 L 435.38 19.91 L 435.38 18.81 L 440.99 18.81 L 440.99 17.71 L 405.02 17.71 L 405.02 18.81 L 414.92 18.81 L 414.92 19.91 L 423.39 19.91 L 423.39 21.01 L 424.6 21.01 L 424.6 23.21 L 426.25 23.21 L 426.25 23.76 L 425.7 23.76 L 425.7 24.86 L 426.69 24.86 L 426.69 27.06 L 426.36 27.06 L 426.36 27.61 L 425.81 27.61 L 425.81 28.71 L 424.6 28.71 L 424.6 32.56 L 419.98 32.56 L 419.98 34.76 L 424.6 34.76 L 424.6 36.41 L 428.45 36.41 Z M 450.78 42.46 L 450.78 40.26 L 456.39 40.26 L 456.39 39.71 L 440.55 39.71 L 440.55 40.26 L 429.22 40.26 L 429.22 42.46 L 419.98 42.46 L 419.98 44.66 L 416.46 44.66 L 416.46 45.21 L 420.53 45.21 L 420.53 47.41 L 425.37 47.41 L 425.37 47.52 L 425.37 48.565 A 5.001 5.001 0 0 0 425.417 49.239 A 6.051 6.051 0 0 0 425.48 49.61 L 426.36 49.61 L 426.69 51.26 L 426.58 51.26 Q 426.8 52.36 427.79 53.46 L 427.02 53.46 Q 427.46 54.12 428.12 54.56 L 427.57 54.56 A 6.271 6.271 0 0 0 429.541 55.55 Q 430.959 55.99 432.85 55.99 Q 435.18 55.99 436.797 55.277 A 5.963 5.963 0 0 0 438.02 54.56 L 436.81 54.56 Q 437.47 54.12 437.91 53.46 L 436.26 53.46 A 8.171 8.171 0 0 0 436.816 52.606 Q 437.161 52.003 437.47 51.26 L 439.78 51.26 A 3.342 3.342 0 0 0 439.941 50.886 Q 440.014 50.681 440.046 50.49 A 1.987 1.987 0 0 0 440.055 50.435 A 7.407 7.407 0 0 1 440.134 49.985 A 9.324 9.324 0 0 1 440.22 49.61 L 435.82 49.61 A 13.072 13.072 0 0 0 435.936 48.944 A 10.931 10.931 0 0 0 435.985 48.565 Q 436.04 48.07 436.04 47.52 L 436.04 47.41 L 442.09 47.41 L 442.09 45.21 L 441.1 45.21 L 441.1 44.66 L 441.87 44.66 L 441.87 42.46 L 450.78 42.46 Z M 516.12 58.96 L 515.79 58.41 L 515.57 57.86 L 508.75 57.86 L 508.75 58.41 L 509.41 58.41 L 509.41 58.96 L 509.52 58.96 L 509.52 60.61 L 514.36 60.61 L 514.36 62.81 L 505.89 62.81 L 505.89 64.46 L 512.16 64.46 L 512.16 66.11 L 508.31 66.11 L 508.31 67.76 L 510.62 67.76 L 510.62 68.86 L 503.69 68.86 L 503.69 69.41 L 519.2 69.41 L 518.87 68.86 L 519.2 68.86 L 518.65 67.76 L 517.77 67.76 L 517.11 66.11 L 516.34 64.46 L 519.86 64.46 L 519.09 62.81 L 526.24 62.81 L 525.25 60.61 L 514.36 60.61 L 513.7 58.96 L 516.12 58.96 Z M 506.88 30.36 L 506.88 30.91 L 517.77 30.91 L 517.77 32.01 L 509.85 32.01 L 509.85 32.12 L 517.88 32.12 Q 518.65 32.12 519.09 32.01 L 524.15 32.01 Q 525.36 31.68 526.35 30.91 L 524.81 30.91 L 525.36 30.36 L 520.19 30.36 A 4.499 4.499 0 0 0 520.358 30.183 Q 520.551 29.968 520.63 29.81 L 519.53 29.81 L 519.86 29.26 L 520.96 29.26 L 521.29 28.16 L 521.84 28.16 Q 521.935 27.97 521.948 27.697 A 1.852 1.852 0 0 0 521.95 27.61 L 521.29 27.61 L 521.4 26.51 Q 521.4 25.41 521.07 24.31 L 520.41 24.31 A 1.501 1.501 0 0 1 520.325 24.099 Q 520.291 23.995 520.266 23.874 A 2.858 2.858 0 0 1 520.245 23.76 A 1.045 1.045 0 0 0 520.127 23.418 A 0.949 0.949 0 0 0 519.97 23.21 L 521.51 23.21 Q 521.07 22.33 520.3 21.56 L 520.08 21.56 Q 519.75 21.23 519.31 21.01 L 518.98 21.01 Q 517.88 20.46 516.67 20.46 L 508.64 20.46 L 508.64 21.01 L 508.31 21.01 L 508.31 21.56 L 508.75 21.56 L 508.75 23.21 L 508.2 23.21 L 508.2 24.31 L 508.75 24.31 L 508.75 26.51 L 508.31 26.51 L 508.31 28.16 L 508.53 28.16 L 508.53 29.26 L 508.42 29.26 L 508.42 29.81 L 507.43 29.81 L 507.43 30.36 L 506.88 30.36 Z M 130.79 24.31 L 139.48 24.31 L 140.03 22.11 L 129.69 22.11 L 129.8 21.56 L 114.4 21.56 L 114.51 22.11 L 124.74 22.11 L 125.4 24.31 L 118.69 24.31 L 119.24 26.51 L 118.36 26.51 L 118.69 27.61 L 129.58 27.61 L 129.8 26.51 L 130.24 26.51 L 130.79 24.31 Z M 128.04 33.66 L 128.59 31.46 L 127.93 31.46 L 128.04 30.91 L 117.26 30.91 L 117.37 31.46 L 121.22 31.46 L 121.77 33.66 L 120.56 33.66 L 121 35.31 L 125.07 35.31 L 125.4 36.41 L 121.22 36.41 L 121.55 37.51 L 123.86 37.51 L 124.19 39.16 L 122.43 39.16 L 122.76 40.26 L 123.31 40.26 L 123.42 40.59 L 123.53 40.26 L 126.39 40.26 L 126.72 39.16 L 124.63 39.16 L 124.96 37.51 L 128.04 37.51 L 128.26 36.41 L 127.82 36.41 L 128.04 35.31 L 126.17 35.31 L 126.5 33.66 L 128.04 33.66 Z M 131.89 18.81 L 124.19 18.81 L 124.52 20.46 L 134.2 20.46 L 134.64 18.81 L 142.34 18.81 L 142.89 16.61 L 131.34 16.61 L 131.89 18.81 Z M 268.51 52.36 L 276.54 52.36 L 276.21 51.81 L 273.13 51.81 L 271.7 49.61 L 271.37 49.61 L 269.94 47.41 L 272.36 47.41 L 271.92 46.86 L 269.06 46.86 L 269.06 47.41 L 268.95 47.41 L 268.95 49.61 L 270.71 49.61 L 270.71 51.81 L 268.51 51.81 L 268.51 52.36 Z M 509.52 56.21 L 515.57 56.21 L 515.13 55.11 L 513.92 55.11 L 513.04 53.02 L 508.53 53.02 L 508.53 55.11 L 509.52 55.11 L 509.52 56.21 Z M 288.64 25.96 L 285.34 25.96 L 286 27.06 L 283.03 27.06 L 284.02 28.71 L 287.54 28.71 L 287.54 27.06 L 288.64 27.06 L 288.64 25.96 Z M 283.91 30.91 L 283.91 28.71 L 281.93 28.71 L 283.25 30.91 L 283.91 30.91 Z M 507.21 56.21 L 505.78 56.21 L 505.78 57.86 L 507.87 57.86 L 507.21 56.21 Z M 292.71 25.96 L 292.71 25.41 L 291.94 25.41 L 292.27 25.96 L 292.71 25.96 Z" vector-effect="non-scaling-stroke"/></g></svg>